//  ***** gm - Piano 1 *****
//  Soundfont converted using sfZed
//  SoundFont version 2.1
//  E-mu 10K1
//  Using Virtual Sampler


<group>
loop_mode=loop_continuous
ampeg_release=0.250

<region>
sample=PIANOA3.wav
lokey=98
loop_start=4686
loop_end=4840
tune=3
pitch_keycenter=103
volume=-24.400

<region>
sample=PIANOA3.wav
lokey=98
loop_start=4686
loop_end=4840
tune=3
pitch_keycenter=103
volume=-24.400

<region>
sample=PIANO36.wav
hikey=38
loop_start=11989
loop_end=13670
tune=-4
pitch_keycenter=36
volume=-29.200

<region>
sample=PIANO36.wav
hikey=38
loop_start=11989
loop_end=13670
tune=-4
pitch_keycenter=36
volume=-29.200

<region>
sample=PIANO41.wav
lokey=39
hikey=43
loop_start=10830
loop_end=13101
tune=-1
pitch_keycenter=41
volume=-25.800

<region>
sample=PIANO41.wav
lokey=39
hikey=43
loop_start=10830
loop_end=13101
tune=-1
pitch_keycenter=41
volume=-25.800

<region>
sample=PIANO48.wav
lokey=44
hikey=50
loop_start=9313
loop_end=11166
pitch_keycenter=48
volume=-31.800

<region>
sample=PIANO48.wav
lokey=44
hikey=50
loop_start=9313
loop_end=11166
pitch_keycenter=48
volume=-31.800

<region>
sample=PIANO56.wav
lokey=51
hikey=59
loop_start=8309
loop_end=9795
pitch_keycenter=56
volume=-25.300

<region>
sample=PIANO56.wav
lokey=51
hikey=59
loop_start=8309
loop_end=9795
pitch_keycenter=56
volume=-25.300

<region>
sample=PIANO64.wav
lokey=60
hikey=67
loop_start=9176
loop_end=10514
tune=1
pitch_keycenter=64
volume=-17.300

<region>
sample=PIANO64.wav
lokey=60
hikey=67
loop_start=9176
loop_end=10514
tune=1
pitch_keycenter=64
volume=-17.300

<region>
sample=PIANO73.wav
lokey=68
hikey=74
loop_start=6194
loop_end=7586
tune=1
pitch_keycenter=73
volume=-18.600

<region>
sample=PIANO73.wav
lokey=68
hikey=74
loop_start=6194
loop_end=7586
tune=1
pitch_keycenter=73
volume=-18.600

<region>
sample=PIANO78.wav
lokey=75
hikey=81
loop_start=6447
loop_end=7667
tune=-1
pitch_keycenter=78
volume=-19.900

<region>
sample=PIANO78.wav
lokey=75
hikey=81
loop_start=6447
loop_end=7667
tune=-1
pitch_keycenter=78
volume=-19.900

<region>
sample=PIANO84.wav
lokey=82
hikey=88
loop_start=5976
loop_end=7343
tune=-2
pitch_keycenter=84
volume=-18.600

<region>
sample=PIANO84.wav
lokey=82
hikey=88
loop_start=5976
loop_end=7343
tune=-2
pitch_keycenter=84
volume=-18.600

<region>
sample=PIANO92.wav
lokey=89
hikey=97
loop_start=5392
loop_end=6440
tune=1
pitch_keycenter=92
volume=-21.200

<region>
sample=PIANO92.wav
lokey=89
hikey=97
loop_start=5392
loop_end=6440
tune=1
pitch_keycenter=92
volume=-21.200
